<svg version="1.2" xmlns="http://www.w3.org/2000/svg" viewBox="0 0 164 38" width="164" height="38">
	<title>logo-full-svg</title>
	<defs>
		<linearGradient id="g1" x2="1" gradientUnits="userSpaceOnUse" gradientTransform="matrix(0,32,-32,0,19,2)">
			<stop offset="0" stop-color="#ffffff"/>
			<stop offset="1" stop-color="#d0d5dd"/>
		</linearGradient>
		<linearGradient id="g2" x2="1" gradientUnits="userSpaceOnUse" gradientTransform="matrix(17.636,-17.636,17.764,17.764,10.199,24.214)">
			<stop offset="0" stop-color="#0076c1"/>
			<stop offset=".074" stop-color="#0b82c6"/>
			<stop offset=".277" stop-color="#269ed3"/>
			<stop offset=".455" stop-color="#36afda"/>
			<stop offset=".587" stop-color="#3cb5dd"/>
		</linearGradient>
		<linearGradient id="g3" x2="1" gradientUnits="userSpaceOnUse" gradientTransform="matrix(17.689,-17.689,26.228,26.228,10.139,24.254)">
			<stop offset="0" stop-color="#00a482"/>
			<stop offset="1" stop-color="#79dd83"/>
		</linearGradient>
		<linearGradient id="g4" x2="1" gradientUnits="userSpaceOnUse" gradientTransform="matrix(3.668,-3.394,4.478,4.84,24.861,13.507)">
			<stop offset="0" stop-color="#00a482"/>
			<stop offset="1" stop-color="#79dd83"/>
		</linearGradient>
	</defs>
	<style>
		tspan { white-space:pre } 
		.s0 { fill: #ffffff } 
		.s1 { fill: url(#g1) } 
		.s2 { fill: none;stroke: #d0d5dd;stroke-width: .4 } 
		.s3 { fill: url(#g2) } 
		.s4 { fill: url(#g3) } 
		.s5 { opacity: .3;fill: url(#g4) } 
		.t6 { font-size: 22px;fill: #ececec;font-weight: 800;font-family: "EncodeSansSemiExpanded-ExtraBold", "Encode Sans SemiExpanded ExBold" } 
	</style>
	<g>
		<path class="s0" d="m11 2.1h16c4.4 0 7.9 3.5 7.9 7.9v16c0 4.4-3.5 7.9-7.9 7.9h-16c-4.4 0-7.9-3.5-7.9-7.9v-16c0-4.4 3.5-7.9 7.9-7.9z"/>
		<path class="s1" d="m11 2.1h16c4.4 0 7.9 3.5 7.9 7.9v16c0 4.4-3.5 7.9-7.9 7.9h-16c-4.4 0-7.9-3.5-7.9-7.9v-16c0-4.4 3.5-7.9 7.9-7.9z"/>
		<path class="s2" d="m11 2.1h16c4.4 0 7.9 3.5 7.9 7.9v16c0 4.4-3.5 7.9-7.9 7.9h-16c-4.4 0-7.9-3.5-7.9-7.9v-16c0-4.4 3.5-7.9 7.9-7.9z"/>
		<path fill-rule="evenodd" class="s3" d="m15.2 16c0 0 0.6 0.9 2.2-0.3 1.2-1.1 2.8-1 4.2-0.4 0.3 0.1-1.3 0.8-1.3 1.2-0.1 0.3 0.5 0.7 1.3 0.4 1.2-0.5 2.3-1.3 5.1-0.8q2.2 0.3 3.7 1.8c-1.5 4.3-5.7 8.4-11.4 10.3-2-0.7-3.8-1.6-5.4-2.7 1.8 0.2 3.8 0 5.8-0.8 2.3-1 3-2.9 3-2.9 0 0-0.6-0.9-2.1 0.4-1.2 1-2.9 1-4.2 0.4-0.3-0.1 1.2-0.8 1.3-1.2 0-0.3-0.6-0.7-1.4-0.4-1.2 0.6-2.2 1.3-5 0.9q-0.8-0.1-1.4-0.3c-2-2.7-3-5.7-2.5-8.5 0.7-3.8 4.3-5.9 7.5-4.8 3.2 1.1 4.4 3.2 4.4 3.2 0 0 1.2-2.1 4.4-3.2 3.2-1.1 6.8 1 7.5 4.8q0.2 1.6-0.1 3.2-0.5-0.7-1.2-1.4c-2.1-2.1-6.9-3.4-11.2-1.7-2.4 0.9-3.2 2.8-3.2 2.8zm2.1 3.8h1.1v1.1h1.2v-1.1h1.1v-1.3h-1.1v-1.1h-1.2v1.1h-1.1z"/>
		<path class="s4" d="m17.3 18.5h1.1v-1.1h1.2v1.1h1.1v1.3h-1.1c1.7 0.8 4.6 2 8.2 2.5 1.2-1.3 2.1-2.9 2.6-4.4q-1.5-1.5-3.7-1.8c-2.8-0.5-3.9 0.3-5.1 0.8-0.8 0.3-1.4-0.1-1.3-0.4 0-0.4 1.6-1.1 1.3-1.2-1.4-0.6-3-0.7-4.2 0.4-1.6 1.2-2.2 0.3-2.2 0.3 0 0 0.8-1.9 3.2-2.8 4.3-1.8 9.1-0.4 11.2 1.7q0.7 0.7 1.2 1.4 0.3-1.6 0.1-3.2c-0.7-3.8-4.3-5.9-7.5-4.8-3.2 1.1-4.4 3.2-4.4 3.2 0 0-1.2-2.1-4.4-3.2-1.8-0.6-3.8-0.2-5.3 1 0.7 1.4 1.5 2.8 3.8 5.6 1.9 2.2 4.2 3.6 4.2 3.6z"/>
		<path class="s5" d="m27.3 9.6c-3-1.5-6.1 0.9-7.1 2.1 1.7-0.3 3.2-0.5 5-0.1 2.8 0.6 3.9 1.6 5.1 3.1-0.2-2.8-1.9-4.5-3-5.1z"/>
		<text id="P's Clinic" style="transform: matrix(1,0,0,1,44,12)" >
			<tspan x="0" y="17.8" class="t6">P</tspan><tspan  y="17.8" class="t6">'</tspan><tspan  y="17.8" class="t6">s</tspan><tspan  y="17.8" class="t6"> </tspan><tspan  y="17.8" class="t6">C</tspan><tspan  y="17.8" class="t6">l</tspan><tspan  y="17.8" class="t6">i</tspan><tspan  y="17.8" class="t6">n</tspan><tspan  y="17.8" class="t6">i</tspan><tspan  y="17.8" class="t6">c
</tspan>
		</text>
	</g>
</svg>